<?xml version="1.0" encoding="UTF-8"?>
<svg xmlns="http://www.w3.org/2000/svg" xmlns:xlink="http://www.w3.org/1999/xlink" width="65.999" height="49.792" viewBox="0 0 65.999 49.792">
  <defs>
    <clipPath id="clip-path">
      <rect id="Rectangle_708" data-name="Rectangle 708" width="65.999" height="49.792" fill="#8aa8c3"></rect>
    </clipPath>
  </defs>
  <g id="Group_9854" data-name="Group 9854" transform="translate(0 0)">
    <g id="Group_9853" data-name="Group 9853" transform="translate(0 0)" clip-path="url(#clip-path)">
      <path id="Path_9373" data-name="Path 9373" d="M65.8,17.722a3.279,3.279,0,0,0-3.507-1.614c-.145.017-.29.04-.433.064l-.264.043a21.583,21.583,0,0,0-7.338,2.512c-5.014,2.5-10.4,4.971-16.233,5.431A10.886,10.886,0,0,1,29.568,21.2a2.521,2.521,0,0,1-.226-.583c.5-.2,2.488-.469,7.074.719,7.1,1.952,10.807-1.686,11.178-2.079.9-.838,3.293-3.067,2.112-5.128-.921-1.607-3.3-1.562-5.221-.981a9.02,9.02,0,0,1-4.852-.3c-1.7-.464-3.4-1.1-5.05-1.726l-.024-.01a44.367,44.367,0,0,0-7.545-2.321,19.109,19.109,0,0,0-13.393,2.69,26.291,26.291,0,0,0-8.836,8.474c-4.5,7.133-5.04,12.576-4.7,15.9A2.493,2.493,0,0,0,2.53,38.048a2.465,2.465,0,0,0,2.088-1.126,4.21,4.21,0,0,0,.757-1.764l.083-.393A6.9,6.9,0,0,1,8.423,30.5l.143-.081c1.883-1.048,3.664-.39,8.34,1.774,1.907.883,4.283,1.983,7.2,3.076,13.547,4.6,22.895-1,28.75-5.619C57.477,26,62.87,22.322,63.087,22.174c1-.621,3.662-2.274,2.709-4.452M25.187,32.246c-2.75-1.036-4.967-2.059-7-3-3.012-1.4-5.462-2.529-7.809-2.529a6.742,6.742,0,0,0-2.674.545v-.117l-.914.576a10.108,10.108,0,0,0-3.262,3.321A27.591,27.591,0,0,1,7.5,21.677a23.07,23.07,0,0,1,7.764-7.431A16.762,16.762,0,0,1,23.83,11.72a14.48,14.48,0,0,1,2.59.236,41,41,0,0,1,7.028,2.179c1.712.645,3.486,1.312,5.333,1.819a12.041,12.041,0,0,0,6.657.269,3.773,3.773,0,0,1,.824-.2,10.573,10.573,0,0,1-.881.9l-.112.117c-.1.112-2.548,2.7-8.024,1.19-5.7-1.474-9.147-1.324-10.526.457a3.266,3.266,0,0,0-.283,3.367h-.083l.5.888a1.841,1.841,0,0,0,.224.31,14.027,14.027,0,0,0,11.207,4.109c6.4-.5,12.107-3.121,17.407-5.759a21.306,21.306,0,0,1,5.6-2.093c-.976.669-6.021,4.145-10.426,7.619-5.267,4.152-13.659,9.2-25.673,5.117" transform="translate(0.001 11.744)" fill="#8aa8c3"></path>
      <path id="Path_9374" data-name="Path 9374" d="M28.05,11.694a1.615,1.615,0,0,0,.369-1.176,7.757,7.757,0,0,0-7.669-7.54h-.007A1.609,1.609,0,0,0,19.6,5.72a1.588,1.588,0,0,0,1.133.471c.681.007,4.1.262,4.483,4.609a1.617,1.617,0,0,0,1.6,1.467l.169-.01a1.619,1.619,0,0,0,1.064-.564" transform="translate(26.421 4.111)" fill="#8aa8c3"></path>
      <path id="Path_9375" data-name="Path 9375" d="M58.819,15.848A17.532,17.532,0,0,0,53.91,5.069,16.854,16.854,0,0,0,30.955,4a16.785,16.785,0,0,0-11.421-4A17,17,0,0,0,4.572,10.053,17.6,17.6,0,0,0,3.23,14.66a12.359,12.359,0,0,0,.288,6.4,1.46,1.46,0,0,0,2.1,1.081,2.1,2.1,0,0,0,.9-2.176A14.2,14.2,0,0,1,10.3,7.322a13.641,13.641,0,0,1,19.526.014A1.635,1.635,0,0,0,32.1,7.322a13.643,13.643,0,0,1,19.514,0,14.178,14.178,0,0,1,4.05,9.952c0,3.426-.331,4.988-1.964,7.528-.726,1.133.736,2.483,1.948,1.726,1.979-1.238,2.386-3.455,2.864-5.767a17.237,17.237,0,0,0,.3-4.914" transform="translate(4.058 0)" fill="#8aa8c3"></path>
    </g>
  </g>
</svg>
