<?xml version="1.0" encoding="UTF-8"?>
<svg xmlns="http://www.w3.org/2000/svg" xmlns:xlink="http://www.w3.org/1999/xlink" width="73.548" height="64.483" viewBox="0 0 73.548 64.483">
  <defs>
    <clipPath id="clip-path">
      <rect id="Rectangle_709" data-name="Rectangle 709" width="73.548" height="64.483" fill="#8aa8c3"></rect>
    </clipPath>
  </defs>
  <g id="Group_9856" data-name="Group 9856" transform="translate(0 0)">
    <g id="Group_9855" data-name="Group 9855" transform="translate(0 0)" clip-path="url(#clip-path)">
      <path id="Path_9376" data-name="Path 9376" d="M67.119,22.418a1.362,1.362,0,0,0-1.047.192,1.378,1.378,0,0,0-.607.873,29.558,29.558,0,0,1-28.694,23.2A29.357,29.357,0,0,1,9.033,26.889a6.1,6.1,0,1,0-2.922.755c.083,0,.166,0,.247,0A32.12,32.12,0,0,0,36.773,49.46,32.349,32.349,0,0,0,68.184,24.079a1.392,1.392,0,0,0-1.065-1.662m-57.682-.9a3.3,3.3,0,0,1-3.325,3.351,3.345,3.345,0,0,1-3.335-3.351,3.33,3.33,0,1,1,6.66,0" transform="translate(0 15.023)" fill="#8aa8c3"></path>
      <path id="Path_9377" data-name="Path 9377" d="M42.583,11.619l-.014-.016a.44.44,0,0,0-.053-.059,1.079,1.079,0,0,0-.164-.146,20.2,20.2,0,0,0-27.475.028,1.566,1.566,0,0,0-.156.144l0,.006a20.356,20.356,0,0,0,0,29.577l.057.057a20.214,20.214,0,0,0,27.633.059l.01-.008a.856.856,0,0,0,.093-.087l.356-.332h-.014a20.348,20.348,0,0,0-.273-29.224m-4.7,24.395a36.146,36.146,0,0,0,1.187-8.265h7.008a17.581,17.581,0,0,1-4.641,10.592,20.171,20.171,0,0,0-3.554-2.327m1.185-11.041a36.2,36.2,0,0,0-1.185-8.257,20.382,20.382,0,0,0,3.556-2.329,17.578,17.578,0,0,1,4.637,10.586Zm-2.776,0-6.105,0V18.9A20.216,20.216,0,0,0,35.3,17.827a34.944,34.944,0,0,1,.994,7.146m.719-10.942c-.227-.595-.466-1.154-.715-1.668a17.2,17.2,0,0,0-1.377-2.4,17.4,17.4,0,0,1,4.445,2.519,17.9,17.9,0,0,1-2.353,1.547m-6.824,2.082v-6.9a9.379,9.379,0,0,1,3.606,4.353c.243.506.47,1.045.68,1.6a17.4,17.4,0,0,1-4.285.946m6.107,24.253c.249-.52.49-1.081.717-1.673a17.565,17.565,0,0,1,2.353,1.545,17.29,17.29,0,0,1-4.445,2.519,17.428,17.428,0,0,0,1.375-2.391M30.185,27.749l6.105,0A34.848,34.848,0,0,1,35.3,34.9a20.281,20.281,0,0,0-5.111-1.073Zm4.293,9.81c-.211.563-.441,1.1-.682,1.608a9.307,9.307,0,0,1-3.608,4.343V36.619a17.286,17.286,0,0,1,4.289.94M19.368,16.717A36.041,36.041,0,0,0,18.18,24.97H11.172a17.58,17.58,0,0,1,4.637-10.58,20.4,20.4,0,0,0,3.558,2.327m3.414-1.547c.211-.565.439-1.1.68-1.606,1.12-2.339,2.511-3.926,3.95-4.513V16.14a17.421,17.421,0,0,1-4.629-.97m4.629,3.752V24.97H20.962a34.536,34.536,0,0,1,.994-7.14,20.177,20.177,0,0,0,5.455,1.093m-9.527-6.437a17.385,17.385,0,0,1,4.447-2.519,17.17,17.17,0,0,0-1.377,2.4c-.243.5-.478,1.051-.713,1.668a17.422,17.422,0,0,1-2.357-1.545m.3,15.263a36.289,36.289,0,0,0,1.185,8.265,20.163,20.163,0,0,0-3.554,2.327,17.577,17.577,0,0,1-4.641-10.59Zm2.78,0,6.449,0v6.06A20.132,20.132,0,0,0,21.956,34.9a34.556,34.556,0,0,1-.994-7.15M20.235,38.7c.221.577.464,1.138.719,1.67a17.509,17.509,0,0,0,1.373,2.391,17.469,17.469,0,0,1-4.442-2.517A17.32,17.32,0,0,1,20.235,38.7m7.176-2.106V43.67c-1.438-.585-2.829-2.169-3.948-4.5-.245-.514-.474-1.055-.684-1.612a17.313,17.313,0,0,1,4.631-.964" transform="translate(8.149 5.877)" fill="#8aa8c3"></path>
      <path id="Path_9378" data-name="Path 9378" d="M64.81,21.81q-.13,0-.255.006A32.114,32.114,0,0,0,3.22,23.431V23.1l-.488,2.278a1.377,1.377,0,0,0-.006.561v1.8l.263-1.215a1.392,1.392,0,0,0,2.46-.559A29.34,29.34,0,0,1,61.88,22.567a6.092,6.092,0,1,0,2.93-.757m3.327,6.123a3.3,3.3,0,0,1-3.325,3.351,3.345,3.345,0,0,1-3.335-3.351,3.33,3.33,0,1,1,6.66,0" transform="translate(2.634 0.001)" fill="#8aa8c3"></path>
    </g>
  </g>
</svg>
