<?xml version="1.0" encoding="UTF-8"?>
<svg xmlns="http://www.w3.org/2000/svg" xmlns:xlink="http://www.w3.org/1999/xlink" width="66.141" height="71" viewBox="0 0 66.141 71">
  <defs>
    <clipPath id="clip-path">
      <rect id="Rectangle_707" data-name="Rectangle 707" width="66.141" height="71" fill="#8aa8c3" stroke="#fff" stroke-width="0.5"></rect>
    </clipPath>
  </defs>
  <g id="Group_9852" data-name="Group 9852" transform="translate(0 0)">
    <g id="Group_9851" data-name="Group 9851" transform="translate(0 0)" clip-path="url(#clip-path)">
      <path id="Path_9372" data-name="Path 9372" d="M66.056,28.3a1.823,1.823,0,0,0-.614-.912h0c-5.479-4.893-16.243-6.263-21.44-2.612-3.2,2.232-5.415,5.419-6.956,9.913A33.015,33.015,0,0,0,33.9,37.3c-.049-.2-.083-.4-.134-.595-.254-1.036-.559-2.057-.885-3.07a1.707,1.707,0,0,0-.352-1.047A44.614,44.614,0,0,0,24.977,19.1a1.826,1.826,0,0,0-2.793,2.347,41.067,41.067,0,0,1,6.127,10.318c-3.921-.258-9.583-1.286-12.61-4.831-2.575-3.01-2.511-6.283-2.511-10.408,0-3.852,0-8.127-2.189-12.7,8.206,1.121,17.865,7.621,19.62,13.8a19.8,19.8,0,0,1,.75,6.274,1.827,1.827,0,0,0,3.652.136,23.79,23.79,0,0,0-.912-7.413C31.662,8.012,18.14-.5,7.711.022A2.109,2.109,0,0,0,6.662.306,1.829,1.829,0,0,0,6.34,3.045C9.561,7.8,9.527,12.229,9.491,16.512s-.072,8.73,3.388,12.785c4.255,4.974,11.838,6.05,16.765,6.176q.32,1.058.584,2.134a39.177,39.177,0,0,1-.211,21.53c-.015.051-.017.1-.03.153-10.975.158-21.259,3.106-29.16,8.3a1.831,1.831,0,0,0,2.008,3.061v0c7.579-4.976,17.588-7.715,28.252-7.715h.657A57.345,57.345,0,0,1,49.5,65.85a38.111,38.111,0,0,1,5.315,2.311c4.083,2.1,4.733,2.511,4.8,2.511a1.847,1.847,0,0,0,1,.292L60.579,71a1.825,1.825,0,0,0,1-3.36A52.123,52.123,0,0,0,56.452,64.9a41.773,41.773,0,0,0-5.824-2.522,61.056,61.056,0,0,0-16.88-3.046,41.685,41.685,0,0,0,.987-17.7l.013-.009a28.3,28.3,0,0,1,4.125-3.716c2.379,1.748,5.875,3.733,9.525,3.733h0a9.233,9.233,0,0,0,1.663-.1v0c3.735-.678,5.735-3.132,7.562-5.426s3.55-4.436,7.067-5.479A1.826,1.826,0,0,0,66.056,28.3M54.789,33.759h0c-1.656,2.066-2.968,3.692-5.362,4.119-2.479.478-5.206-.823-7.229-2.134a26.37,26.37,0,0,1,9.5-3.1,1.835,1.835,0,0,0-.369-3.652,29.61,29.61,0,0,0-8.762,2.437,14.445,14.445,0,0,1,3.524-3.66c2.91-2.03,9.694-1.838,14.452.657a19.952,19.952,0,0,0-5.76,5.332" transform="translate(0 -0.001)" fill="#8aa8c3" stroke="#fff" stroke-width="0.5"></path>
    </g>
  </g>
</svg>
