<?xml version="1.0" encoding="UTF-8"?>
<!-- Generator: Adobe Illustrator 27.5.0, SVG Export Plug-In . SVG Version: 6.00 Build 0)  -->
<svg xmlns="http://www.w3.org/2000/svg" xmlns:xlink="http://www.w3.org/1999/xlink" version="1.1" id="Layer_1" x="0px" y="0px" viewBox="0 0 476.9 133.9" style="enable-background:new 0 0 476.9 133.9;" xml:space="preserve">
<style type="text/css">
	.st0{clip-path:url(#SVGID_00000131352397928817573710000010447566011349368705_);}
	.st1{clip-path:url(#SVGID_00000140000714309284384120000002621104057031307179_);}
	.st2{opacity:0.5;}
	.st3{clip-path:url(#SVGID_00000148640416455469448250000013012697611168584621_);}
	.st4{fill:none;stroke:#D0D4C9;stroke-width:4;}
</style>
<g id="Group_9745" transform="translate(-810.556 -1767.792)">
	<g id="Group_82" transform="translate(1295.443 1872.606) rotate(176)">
		<g>
			<defs>
				
					<rect id="SVGID_1_" x="0" y="0" transform="matrix(0.9976 -6.975647e-02 6.975647e-02 0.9976 -3.0816 16.825)" width="478.7" height="105.1"></rect>
			</defs>
			<clipPath id="SVGID_00000007427312678563639400000010674262037002761630_">
				<use xlink:href="#SVGID_1_" style="overflow:visible;"></use>
			</clipPath>
			
				<g id="Group_59" transform="translate(0 0)" style="clip-path:url(#SVGID_00000007427312678563639400000010674262037002761630_);">
				<g id="Group_58" transform="translate(0 0)">
					<g>
						<defs>
							
								<rect id="SVGID_00000161626412444604093980000005757386888466406071_" x="0" y="0" transform="matrix(0.9976 -6.975647e-02 6.975647e-02 0.9976 -3.0816 16.8249)" width="478.7" height="105.1"></rect>
						</defs>
						<clipPath id="SVGID_00000078042290634205795090000001112798663199425924_">
							<use xlink:href="#SVGID_00000161626412444604093980000005757386888466406071_" style="overflow:visible;"></use>
						</clipPath>
						<g id="Group_57" style="clip-path:url(#SVGID_00000078042290634205795090000001112798663199425924_);">
							<g id="Group_56" transform="translate(0 0)" class="st2">
								<g id="Group_55" transform="translate(0)">
									<g>
										<defs>
											
												<rect id="SVGID_00000173123983397699049380000015731520824042697359_" x="0" y="0" transform="matrix(0.9976 -6.975647e-02 6.975647e-02 0.9976 -3.0816 16.825)" width="478.7" height="105.1"></rect>
										</defs>
										<clipPath id="SVGID_00000041997446312567946650000017149345686584758163_">
											<use xlink:href="#SVGID_00000173123983397699049380000015731520824042697359_" style="overflow:visible;"></use>
										</clipPath>
										<g id="Group_54" style="clip-path:url(#SVGID_00000041997446312567946650000017149345686584758163_);">
											<path id="Path_42" class="st4" d="M2.9,50.7c19.6,25.8,46.4,42.4,79.1,48.9c11.4,2.3,23,3.4,34.6,3.2             c42.5,0,93.4-12.9,149-38.3c96.7-42.4,154.8-59.5,213-62.2"></path>
										</g>
									</g>
								</g>
							</g>
						</g>
					</g>
				</g>
			</g>
		</g>
	</g>
</g>
</svg>
