<?xml version="1.0" encoding="UTF-8" standalone="no"?>
<svg xmlns:inkscape="http://www.inkscape.org/namespaces/inkscape" xmlns:sodipodi="http://sodipodi.sourceforge.net/DTD/sodipodi-0.dtd" xmlns="http://www.w3.org/2000/svg" xmlns:svg="http://www.w3.org/2000/svg" version="1.1" id="svg2" xml:space="preserve" width="180.74667" height="90.88" viewBox="0 0 415.74667 207.88" sodipodi:docname="IGCC_Logo_FA_RGB_Blue.eps">
  <defs id="defs6"></defs>
  <g id="g8" inkscape:groupmode="layer" inkscape:label="ink_ext_XXXXXX" transform="matrix(1.3333333,0,0,-1.3333333,0,207.88)">
    <g id="g10" transform="scale(0.1)">
      <path d="m 208.145,505.84 c -3.02,0 -6.012,1.57 -7.497,4.801 -21.757,47.25 -37.929,97.554 -47.753,150.089 -1.036,5.528 -0.2,11.36 2.324,16.387 50.414,100.453 116.972,165.063 202.683,196.707 39.953,14.754 83.934,22.156 132.235,22.156 112.16,0 247.601,-39.917 409.832,-120.41 200.631,-94.082 357.091,-138.992 486.341,-138.992 2.52,0 5.02,0.02 7.52,0.059 0.09,0.004 0.18,0.004 0.27,0.004 10.89,0 19.1,-10.207 16.34,-20.797 -1.05,-4.067 -2.15,-8.117 -3.29,-12.153 -1.75,-6.23 -6.94,-10.843 -13.32,-12.007 -27.82,-5.082 -67.38,-9.934 -117.07,-9.934 -93.68,0 -223.28,17.262 -377.569,82.797 -118.238,50.219 -229.433,75.566 -326.882,75.566 -68.762,0 -130.688,-12.625 -183.387,-38.043 -77.863,-37.566 -135.781,-101.621 -172.758,-190.859 -1.469,-3.539 -4.762,-5.371 -8.019,-5.371" style="fill:#688db6;fill-opacity:1;fill-rule:nonzero;stroke:none" id="path12"></path>
      <path d="m 889.891,642.637 c -195.27,82.937 -369.5,96.433 -490.629,37.992 -79.828,-38.512 -137.321,-107.484 -171.242,-205.27 -2.415,-6.968 -1.637,-14.769 2.093,-21.129 112.082,-191.031 319.535,-319.648 556.571,-319.648 271.196,0 503.696,168.309 598.856,405.906 4.83,12.024 -5,24.758 -17.85,23.117 -93.19,-11.914 -262.54,-12.394 -477.799,79.032" style="fill:#274d8b;fill-opacity:1;fill-rule:nonzero;stroke:none" id="path14"></path>
      <path d="m 1385.97,660.508 c -125.48,0 -278.57,44.074 -475.661,136.5 -165.332,82.027 -304.274,122.722 -420.383,122.722 -51.071,0 -97.738,-7.878 -140.262,-23.582 -76.93,-28.394 -140.84,-83.476 -190.859,-164.062 -1.707,-2.746 -4.395,-3.992 -7.059,-3.992 -4.105,0 -8.16,2.957 -8.5,7.922 -0.992,14.379 -1.516,28.882 -1.516,43.511 0,34.942 2.872,69.907 8.422,104.078 0.473,2.926 1.442,5.793 2.828,8.415 51.43,97.179 121.676,158.91 209.094,183.38 28.535,7.98 59.024,11.95 91.297,11.95 112.625,0 246.817,-48.32 394.055,-142.694 254.924,-158.847 408.784,-223.312 562.404,-232.621 9.97,-0.601 17.27,-9.43 15.9,-19.316 -0.83,-5.957 -1.74,-11.887 -2.73,-17.793 -1.29,-7.766 -7.88,-13.66 -15.75,-13.985 -7.01,-0.289 -14.09,-0.433 -21.28,-0.433" style="fill:#acc1d6;fill-opacity:1;fill-rule:nonzero;stroke:none" id="path16"></path>
      <path d="m 1414.23,735.648 c -0.31,0 -0.63,0.012 -0.95,0.032 -149.98,8.656 -300.98,71.972 -553.124,229.093 -152.351,97.657 -287.972,146.777 -404.726,146.777 -34.969,0 -68.242,-4.41 -99.77,-13.23 -61.023,-17.09 -114.121,-50.76 -158.808,-100.511 -1.805,-2.008 -4.043,-2.871 -6.227,-2.871 -5.289,0 -10.262,5.072 -7.977,11.202 92.465,248.1 330.395,418.35 604.036,418.35 355.636,0 644.956,-289.33 644.956,-644.963 0,-9.273 -0.26,-18.484 -0.71,-27.648 -0.43,-9.027 -7.78,-16.231 -16.7,-16.231" style="fill:#dde6ef;fill-opacity:1;fill-rule:nonzero;stroke:none" id="path18"></path>
      <path d="m 2644.9,339.621 c 3.56,25.57 20.24,47.59 48.31,47.59 29.48,0 43.32,-22.731 44.39,-47.59 z m 97.68,-34.449 c -6.4,-23.801 -21.67,-36.231 -47.6,-36.231 -27.7,0 -49.37,21.297 -50.79,51.489 h 123.6 v 11.718 c 0,42.274 -25.21,77.442 -74.58,77.442 -44.75,0 -78.5,-35.168 -78.5,-84.18 0,-48.301 33.75,-79.558 79.91,-79.558 38.72,0 64.65,21.308 72.46,56.468 z m -188.25,51.137 c 0,-21.309 -13.49,-33.387 -35.51,-33.387 -21.66,0 -35.17,12.078 -35.17,33.387 0,22.023 13.51,34.101 35.17,34.101 22.02,0 35.51,-12.078 35.51,-34.101 z m -87.36,-122.528 c 0,16.688 13.85,22.02 29.83,22.02 h 50.08 c 18.11,0 29.83,-4.981 29.83,-19.18 0,-22.383 -25.57,-30.902 -61.09,-30.902 -28.77,0 -48.65,8.519 -48.65,28.062 z m 117.2,122.891 c 0,9.937 -2.84,18.816 -7.46,26.269 7.81,3.911 19.53,6.399 29.83,6.399 v 25.57 c -16.68,0 -31.25,-8.879 -39.42,-21.308 -11.72,9.937 -29.12,15.988 -48.65,15.988 -38,0 -65,-20.25 -65,-52.918 0,-17.051 7.46,-30.902 20.24,-40.141 -13.84,-6.043 -23.43,-15.633 -23.43,-29.121 0,-11.719 6.39,-22.019 20.6,-26.648 -19.18,-3.543 -31.97,-14.91 -31.97,-32.66 0,-28.774 34.8,-41.911 76.71,-41.911 46.18,0 89.5,14.911 89.5,53.629 0,24.149 -17.75,41.899 -51.5,41.899 h -60.72 c -13.5,0 -18.83,4.98 -18.83,13.5 0,7.101 4.97,12.082 10.3,15.269 9.59,-4.258 21.31,-6.386 34.1,-6.386 38.35,0 65.7,20.238 65.7,52.57 z M 2309.63,339.27 c 0,28.41 18.47,46.871 41.91,46.871 24.51,0 36.94,-16.332 36.94,-42.262 v -93.77 h 29.47 v 96.25 c 0,36.231 -16.33,63.231 -56.82,63.231 -23.09,0 -44.04,-13.149 -51.5,-31.969 v 27.699 h -29.48 V 250.109 h 29.48 z m -78.13,11.011 c 0,39.418 -23.09,59.309 -62.16,59.309 -36.57,0 -59.66,-21.309 -65.7,-50.442 l 26.28,-3.546 c 4.62,18.109 16.69,31.25 39.07,31.25 21.66,0 34.1,-13.141 34.1,-34.454 v -6.039 l -41.91,-8.519 c -37.29,-7.449 -62.51,-19.531 -62.51,-49.008 0,-26.641 19.53,-42.98 49.72,-42.98 25.22,0 47.24,13.5 55.76,31.617 1.78,-18.469 13.14,-30.547 29.13,-30.547 12.07,0 18.46,3.898 23.79,9.226 v 15.981 c -4.26,-2.481 -9.95,-3.539 -13.49,-3.539 -7.46,0 -12.08,3.898 -12.08,12.058 z m -28.41,-30.902 c 0,-31.258 -20.96,-51.859 -48.3,-51.859 -17.77,0 -26.65,9.949 -26.65,23.082 0,18.828 15.64,23.437 40.14,28.777 l 34.81,7.453 z m -238.91,19.891 c 0,28.41 18.46,46.871 41.9,46.871 24.51,0 36.94,-16.332 36.94,-42.262 v -93.77 h 29.48 v 96.25 c 0,36.231 -16.35,63.231 -56.83,63.231 -23.08,0 -44.04,-13.149 -51.49,-31.969 v 96.25 h -29.49 V 250.109 h 29.49 z m -274.9,22.718 c 0,-68.898 47.95,-116.136 109.74,-116.136 63.93,0 100.16,39.429 104.42,96.957 l -29.83,1.421 c -2.49,-41.199 -28.41,-72.101 -74.59,-72.101 -45.45,0 -78.13,34.812 -78.13,89.859 0,55.051 32.68,89.852 78.13,89.852 46.18,0 72.1,-30.899 74.59,-72.09 l 29.83,1.422 c -4.26,57.539 -40.49,96.957 -104.42,96.957 -61.79,0 -109.74,-47.231 -109.74,-116.141" style="fill:#274d8b;fill-opacity:1;fill-rule:nonzero;stroke:none" id="path20"></path>
      <path d="m 2648.58,639.285 c 3.54,25.574 20.24,47.594 48.3,47.594 29.48,0 43.32,-22.734 44.39,-47.594 z m 97.66,-34.449 c -6.38,-23.797 -21.66,-36.231 -47.58,-36.231 -27.72,0 -49.37,21.313 -50.79,51.5 h 123.59 v 11.723 c 0,42.262 -25.22,77.426 -74.58,77.426 -44.76,0 -78.49,-35.164 -78.49,-84.176 0,-48.301 33.73,-79.558 79.91,-79.558 38.71,0 64.63,21.312 72.44,56.472 z M 2526.4,586.012 c 0,-30.192 15.62,-40.492 37.64,-40.492 17.05,0 28.42,4.621 39.78,13.14 v 19.891 c -8.88,-4.969 -19.18,-9.235 -29.12,-9.235 -13.5,0 -19.18,6.395 -19.18,20.247 v 94.117 h 43.68 v 21.312 h -43.68 v 42.973 h -16.7 l -4.61,-21.664 c -3.56,-14.918 -6.74,-22.02 -21.31,-24.863 l -9.95,-1.774 V 683.68 h 23.45 z m -52.21,63.929 c 0,39.422 -23.09,59.313 -62.16,59.313 -36.59,0 -59.66,-21.313 -65.71,-50.434 l 26.29,-3.55 c 4.61,18.113 16.69,31.253 39.07,31.253 21.66,0 34.09,-13.14 34.09,-34.453 v -6.039 l -41.9,-8.519 c -37.3,-7.461 -62.51,-19.535 -62.51,-49.016 0,-26.637 19.53,-42.976 49.72,-42.976 25.21,0 47.23,13.5 55.75,31.613 1.78,-18.473 13.15,-30.543 29.13,-30.543 12.07,0 18.47,3.898 23.8,9.23 v 15.985 c -4.27,-2.489 -9.95,-3.551 -13.51,-3.551 -7.45,0 -12.06,3.906 -12.06,12.074 z m -28.42,-30.898 c 0,-31.254 -20.96,-51.855 -48.3,-51.855 -17.76,0 -26.64,9.945 -26.64,23.085 0,18.825 15.63,23.442 40.14,28.77 l 34.8,7.457 z m -242.22,56.469 c -6.75,20.246 -23.08,33.742 -50.78,33.742 -23.8,0 -41.92,-13.145 -49.37,-31.965 v 27.703 h -29.48 V 549.781 h 29.48 v 89.149 c 0,28.414 17.4,46.883 39.42,46.883 23.79,0 34.45,-16.336 34.45,-42.266 v -93.766 h 29.47 v 89.149 c 0,28.414 17.77,46.883 39.78,46.883 23.8,0 34.46,-16.336 34.46,-42.266 v -93.766 h 29.47 v 96.25 c 0,35.164 -14.21,63.223 -54.7,63.223 -24.85,0 -44.03,-14.563 -52.2,-33.742 z m -199.95,64.64 h 30.54 v 33.383 h -30.54 z m 0.7,-35.16 V 549.781 h 29.49 v 155.211 z m -69.61,68.543 V 549.781 h 29.49 V 773.535 Z M 1689.28,661.66 c 0,-68.902 47.95,-116.14 109.74,-116.14 63.93,0 100.16,39.425 104.42,96.96 l -29.83,1.422 c -2.49,-41.199 -28.41,-72.097 -74.59,-72.097 -45.45,0 -78.13,34.804 -78.13,89.855 0,55.051 32.68,89.856 78.13,89.856 46.18,0 72.1,-30.899 74.59,-72.098 l 29.83,1.422 c -4.26,57.535 -40.49,96.961 -104.42,96.961 -61.79,0 -109.74,-47.238 -109.74,-116.141" style="fill:#274d8b;fill-opacity:1;fill-rule:nonzero;stroke:none" id="path22"></path>
      <path d="m 2868.06,938.598 c 0,28.414 18.46,46.882 41.91,46.882 24.51,0 36.93,-16.335 36.93,-42.261 v -93.766 h 29.48 v 96.25 c 0,36.227 -16.34,63.217 -56.82,63.217 -23.09,0 -44.05,-13.139 -51.5,-31.963 v 27.703 h -29.48 V 849.453 h 29.48 z m -60.03,-11.719 c 0,48.305 -33.73,82.041 -79.55,82.041 -45.46,0 -78.85,-33.736 -78.85,-82.041 0,-48.301 33.39,-81.688 78.85,-81.688 45.82,0 79.55,33.387 79.55,81.688 z m -128.21,0 c 0,34.805 17.4,58.957 48.66,58.957 31.61,0 49.36,-24.152 49.36,-58.957 0,-34.449 -17.75,-58.957 -49.36,-58.957 -31.26,0 -48.66,24.508 -48.66,58.957 z m -241.5,-45.106 c 6.75,-19.179 26.63,-36.582 55.76,-36.582 45.81,0 71.03,35.872 71.03,81.688 0,45.816 -25.22,82.041 -71.03,82.041 -29.13,0 -49.01,-17.756 -55.76,-36.936 v 32.676 h -29.48 V 789.785 h 29.48 z m -0.71,49.723 c 0,33.742 21.67,53.629 49.72,53.629 30.55,0 47.24,-22.73 47.24,-58.246 0,-35.516 -16.69,-58.246 -47.24,-58.246 -28.05,0 -49.72,19.887 -49.72,53.984 z m -98.73,-15.98 c 0,-28.77 -17.77,-47.239 -40.85,-47.239 -24.51,0 -35.88,16.692 -35.88,42.621 v 93.762 h -29.47 v -96.605 c 0,-36.227 14.92,-62.864 55.41,-62.864 23.43,0 43.32,13.141 50.79,31.61 v -27.348 h 29.48 v 155.207 h -29.48 z m -134.97,11.363 c 0,48.305 -33.74,82.041 -79.56,82.041 -45.46,0 -78.84,-33.736 -78.84,-82.041 0,-48.301 33.38,-81.688 78.84,-81.688 45.82,0 79.56,33.387 79.56,81.688 z m -128.21,0 c 0,34.805 17.4,58.957 48.65,58.957 31.62,0 49.37,-24.152 49.37,-58.957 0,-34.449 -17.75,-58.957 -49.37,-58.957 -31.25,0 -48.65,24.508 -48.65,58.957 z m -37.66,74.941 c -5.32,4.62 -12.42,7.1 -22.02,7.1 -22.37,0 -38.35,-18.111 -44.03,-35.869 v 31.609 h -29.48 V 849.453 h 29.48 v 82.043 c 0,29.836 16.69,50.078 39.06,50.078 9.59,0 15.63,-1.777 24.16,-6.39 z M 1798.31,845.191 c 34.81,0 66.42,15.629 76.37,44.039 v -39.777 h 28.05 V 959.91 h -96.24 v -24.152 h 68.19 c -3.91,-38.36 -30.9,-64.641 -72.81,-64.641 -48.3,0 -80.98,34.453 -80.98,89.86 0,55.403 32.32,90.213 78.13,90.213 45.11,0 71.39,-26.99 73.88,-67.838 l 29.48,1.773 c -3.9,57.185 -40.49,92.345 -103.71,92.345 -61.79,0 -109.39,-47.24 -109.39,-116.138 0,-69.613 45.82,-116.141 109.03,-116.141" style="fill:#274d8b;fill-opacity:1;fill-rule:nonzero;stroke:none" id="path24"></path>
      <path d="m 2835.14,1301.49 c -5.33,4.62 -12.43,7.1 -22.02,7.1 -22.38,0 -38.35,-18.11 -44.04,-35.87 v 31.61 h -29.48 v -155.2 h 29.48 v 82.04 c 0,29.83 16.7,50.07 39.06,50.07 9.6,0 15.64,-1.77 24.16,-6.39 z m -126.08,-74.94 c 0,48.3 -33.74,82.04 -79.56,82.04 -45.46,0 -78.85,-33.74 -78.85,-82.04 0,-48.3 33.39,-81.69 78.85,-81.69 45.82,0 79.56,33.39 79.56,81.69 z m -128.22,0 c 0,34.81 17.4,58.95 48.66,58.95 31.61,0 49.37,-24.14 49.37,-58.95 0,-34.45 -17.76,-58.96 -49.37,-58.96 -31.26,0 -48.66,24.51 -48.66,58.96 z m -122.17,-41.2 c 0,-30.19 15.63,-40.49 37.64,-40.49 17.06,0 28.42,4.62 39.79,13.14 v 19.89 c -8.89,-4.97 -19.19,-9.23 -29.13,-9.23 -13.49,0 -19.18,6.39 -19.18,20.24 v 94.12 h 43.69 v 21.31 h -43.69 l 3.15,42.97 h -16.7 l -7.76,-21.66 c -3.55,-14.92 -6.75,-22.02 -21.3,-24.86 l -9.95,-1.78 v -15.98 h 23.44 z m -170.48,15.98 c 2.84,-38.36 32.32,-56.47 71.03,-56.47 36.23,0 63.58,16.69 63.58,47.59 0,28.06 -18.47,39.78 -49.72,45.11 l -29.12,4.62 c -15.99,2.84 -23.8,9.23 -23.8,21.66 0,14.21 12.78,23.09 32.32,23.09 26.27,0 40.84,-11.01 44.39,-34.81 l 23.8,1.42 c -2.85,35.87 -26.99,55.05 -68.19,55.05 -35.88,0 -59.67,-19.18 -59.67,-47.59 0,-26.64 17.4,-39.07 46.52,-43.69 l 26.29,-4.61 c 19.18,-3.56 29.48,-8.53 29.48,-23.09 0,-15.63 -15.28,-23.08 -35.88,-23.08 -26.63,0 -43.33,12.78 -46.17,36.58 z m -148.21,37.3 c 3.55,25.57 20.24,47.58 48.31,47.58 29.48,0 43.32,-22.73 44.39,-47.58 z m 97.67,-34.46 c -6.4,-23.79 -21.66,-36.22 -47.59,-36.22 -27.71,0 -49.37,21.31 -50.79,51.5 h 123.6 v 11.72 c 0,42.26 -25.22,77.42 -74.58,77.42 -44.76,0 -78.5,-35.16 -78.5,-84.17 0,-48.31 33.74,-79.56 79.91,-79.56 38.72,0 64.64,21.31 72.45,56.47 z m -196.95,-55.04 63.93,155.2 h -28.76 l -47.25,-119.34 h -1.41 l -48.31,119.34 H 1948 l 63.93,-155.2 z m -216.2,89.14 c 0,28.41 18.47,46.88 41.9,46.88 24.51,0 36.94,-16.34 36.94,-42.26 v -93.76 h 29.48 v 96.24 c 0,36.23 -16.34,63.22 -56.83,63.22 -23.08,0 -44.04,-13.14 -51.49,-31.96 v 27.7 h -29.49 v -155.2 h 29.49 z m -102.29,134.61 v -223.75 h 30.9 v 223.75 h -30.9" style="fill:#274d8b;fill-opacity:1;fill-rule:nonzero;stroke:none" id="path26"></path>
    </g>
  </g>
</svg>
