<?xml version="1.0" encoding="UTF-8"?>
<svg xmlns="http://www.w3.org/2000/svg" xmlns:xlink="http://www.w3.org/1999/xlink" width="793" height="182" viewBox="0 0 793 182">
  <defs>
    <clipPath id="clip-path">
      <rect id="Rectangle_899" data-name="Rectangle 899" width="793" height="182" transform="translate(487 447)" fill="#fff"></rect>
    </clipPath>
    <clipPath id="clip-path-2">
      <rect id="Rectangle_83" data-name="Rectangle 83" width="800.686" height="175.882" fill="none" stroke="#8aa8c3" stroke-width="4"></rect>
    </clipPath>
    <clipPath id="clip-path-3">
      <rect id="Rectangle_83-2" data-name="Rectangle 83" width="800.686" height="175.882" fill="none" stroke="#eff2f3" stroke-width="4"></rect>
    </clipPath>
  </defs>
  <g id="Mask_Group_27" data-name="Mask Group 27" transform="translate(-487 -447)" clip-path="url(#clip-path)">
    <g id="Group_10196" data-name="Group 10196">
      <g id="Group_37" data-name="Group 37" transform="translate(487.218 455.118)">
        <g id="Group_36" data-name="Group 36" transform="translate(0 0)" clip-path="url(#clip-path-2)">
          <path id="Path_39" data-name="Path 39" d="M372.849,60.057c-66.094,7.21-183.861,8.412-334.075-55.279" transform="translate(427.176 52.642)" fill="none" stroke="#8aa8c3" stroke-miterlimit="10" stroke-width="4"></path>
          <path id="Path_40" data-name="Path 40" d="M460.728,51.906C324.935-5.776,203.563-15.389,119.443,25.469,64.164,51.906,23.306,99.974.474,168.472" transform="translate(5.222 5.514)" fill="none" stroke="#8aa8c3" stroke-miterlimit="10" stroke-width="4"></path>
        </g>
      </g>
      <g id="Group_46" data-name="Group 46" transform="translate(630 581)">
        <g id="Group_36-2" data-name="Group 36" transform="translate(0 0)" clip-path="url(#clip-path-3)">
          <path id="Path_40-2" data-name="Path 40" d="M443.75,45.454C316.1-4.96,199.525-13.428,119.443,25.469,108.94,30.492,96.6,38.829,86.977,45.535" transform="translate(5.222 5.514)" fill="none" stroke="#eff2f3" stroke-miterlimit="10" stroke-width="4"></path>
        </g>
      </g>
    </g>
  </g>
</svg>
