<?xml version="1.0" encoding="UTF-8"?>
<svg xmlns="http://www.w3.org/2000/svg" xmlns:xlink="http://www.w3.org/1999/xlink" width="64.696" height="66" viewBox="0 0 64.696 66">
  <defs>
    <clipPath id="clip-path">
      <rect id="Rectangle_706" data-name="Rectangle 706" width="64.696" height="66" fill="#8aa8c3"></rect>
    </clipPath>
  </defs>
  <g id="Group_9850" data-name="Group 9850" transform="translate(0 0)">
    <g id="Group_9849" data-name="Group 9849" transform="translate(0 0)" clip-path="url(#clip-path)">
      <path id="Path_9371" data-name="Path 9371" d="M31.92,15.411a7.709,7.709,0,0,0,7.262-5.156A26.917,26.917,0,0,1,59.036,36.16a1.5,1.5,0,1,0,3.007,0A29.938,29.938,0,0,0,39.6,7.256a7.7,7.7,0,1,0-7.682,8.155Zm0-12.4a4.7,4.7,0,1,1,0-.005ZM9.7,43.187a7.729,7.729,0,0,0-3.417-.126A26.8,26.8,0,0,1,19.065,12.779a1.509,1.509,0,1,0-1.5-2.616,29.886,29.886,0,0,0-14.1,34.049A7.7,7.7,0,0,0,5.721,58.081a7.842,7.842,0,0,0,2.009.26A7.7,7.7,0,0,0,9.7,43.187Zm2.549,8.661a4.7,4.7,0,1,1-1.7-4.927A4.707,4.707,0,0,1,12.249,51.848Zm52.194-3.707a7.707,7.707,0,1,0-13.3,7.016,26.843,26.843,0,0,1-33.295,3.677,1.5,1.5,0,1,0-1.608,2.54,29.824,29.824,0,0,0,37.292-4.361,7.694,7.694,0,0,0,10.9-8.872Zm-3.378,4.347a4.7,4.7,0,1,1,.473-3.562,4.7,4.7,0,0,1-.473,3.562" transform="translate(0 0.001)" fill="#8aa8c3"></path>
    </g>
  </g>
</svg>
